# xmcd
#
# Track frame offsets:
#	150
#	13142
#	26423
#	40029
#	58573
#	73176
#	93081
#	112295
#	128768
#	148308
#
# Disc length: 2268 seconds
#
# Revision: 0
# Processed by: cddbd v1.5.1PL0 Copyright (c) Steve Scherf et al.
# Submitted via: dBpowerAMP V4.0
#
DISCID=8c08da0a
DTITLE=Drew Holcomb - Washed in Blue
DYEAR=1900
DGENRE=Blues
TTITLE0=Boy
TTITLE1=Eastbound Wind
TTITLE2=Daylight
TTITLE3=Last Night
TTITLE4=Rollin Around
TTITLE5=Long Gone Away
TTITLE6=Sweetness
TTITLE7=I like to be With Me when I'm With You
TTITLE8=When You Wish (with ellie bannister)
TTITLE9=Resurrected
EXTD=
EXTT0=
EXTT1=
EXTT2=
EXTT3=
EXTT4=
EXTT5=
EXTT6=
EXTT7=
EXTT8=
EXTT9=
PLAYORDER=
